<?xml version="1.0" standalone="no"?>
<!DOCTYPE svg PUBLIC "-//W3C//DTD SVG 20010904//EN"
 "http://www.w3.org/TR/2001/REC-SVG-20010904/DTD/svg10.dtd">
<svg version="1.0" xmlns="http://www.w3.org/2000/svg"
 width="51.000000pt" height="53.000000pt" viewBox="0 0 51.000000 53.000000"
 preserveAspectRatio="xMidYMid meet">

<g transform="translate(0.000000,53.000000) scale(0.100000,-0.100000)"
fill="#000000" stroke="none">
<path d="M0 270 l0 -260 255 0 255 0 0 260 0 260 -255 0 -255 0 0 -260z m327
0 c23 -63 42 -118 43 -122 0 -5 -14 -8 -31 -8 -22 0 -32 5 -36 20 -4 17 -14
20 -53 20 -40 0 -50 -4 -55 -20 -4 -14 -15 -20 -36 -20 -35 0 -37 -10 16 138
l40 113 35 -3 35 -3 42 -115z"/>
<path d="M236 287 c-3 -14 -9 -32 -12 -41 -5 -13 1 -16 24 -16 30 0 31 1 20
33 -15 45 -24 52 -32 24z"/>
</g>
</svg>
