<?xml version="1.0" standalone="no"?>
<!DOCTYPE svg PUBLIC "-//W3C//DTD SVG 20010904//EN"
 "http://www.w3.org/TR/2001/REC-SVG-20010904/DTD/svg10.dtd">
<svg version="1.0" xmlns="http://www.w3.org/2000/svg"
 width="51.000000pt" height="75.000000pt" viewBox="0 0 51.000000 75.000000"
 preserveAspectRatio="xMidYMid meet">

<g transform="translate(0.000000,75.000000) scale(0.100000,-0.100000)"
fill="#000000" stroke="none">
<path d="M0 380 l0 -260 255 0 255 0 0 260 0 260 -255 0 -255 0 0 -260z m364
8 c33 -90 61 -169 64 -176 3 -8 -9 -12 -42 -12 -43 0 -48 2 -57 30 -11 29 -13
30 -75 30 -63 0 -65 -1 -75 -30 -10 -27 -15 -30 -56 -30 -32 0 -44 4 -41 12 3
7 31 86 64 176 l58 162 51 0 51 0 58 -162z"/>
<path d="M232 392 l-21 -62 40 0 c44 0 45 3 20 75 l-18 50 -21 -63z"/>
</g>
</svg>
